<svg xmlns="http://www.w3.org/2000/svg" version="1" width="300" height="450" viewBox="0 0 300 450" preserveAspectRatio="xMidYMid meet"><metadata>
Created by potrace 1.10, written by Peter Selinger 2001-2011
</metadata><g transform="translate(0.000000,450.000000) scale(0.100000,-0.100000)" fill="#000000" stroke="none"><path d="M1828 4448c-7-4-31-13-53-19-22-6-43-16-47-22-4-7-41-10-101-8-67 2-104-2-130-13-35-14-39-14-84 12-42 23-59 26-138 26-76 0-99-5-150-28-33-15-67-34-76-42-14-12-30-13-95-5-117 15-210 0-298-47-70-37-72-37-115-23-40 12-49 12-94-4-82-29-180-81-204-106-23-25-83-136-83-154 0-6-9-28-19-49-11-20-18-45-16-54 14-72 68-134 138-160 86-32 180-43 234-27 40 12 48 12 71-3 48-31 286-26 427 10 22 5 55 21 73 35 30 22 36 23 69 12 50-16 235-7 293 15 31 12 72 17 130 17 47-1 110 3 140 8 42 7 61 6 82-5 35-18 155-18 210 0 24 8 84 20 133 27 139 19 181 47 234 160 27 57 24 129-8 235-35 112-95 154-230 160-48 2-79 8-90 18-44 40-164 60-203 34zm149-19c15-6 37-18 48-28 15-14 42-20 106-24 135-7 176-39 207-157 27-102 26-160-2-223-44-98-97-131-226-142-47-4-89-11-95-15-34-26-171-36-219-16-32 13-51 14-135 4-73-8-109-8-142 0-27 7-45 8-47 2-13-38-297-59-358-27-27 14-30 13-62-19-19-19-44-36-56-39-168-35-358-41-418-11-33 16-43 17-87 5-40-10-63-10-123 0-126 23-164 46-205 125-28 54-27 63 14 158 45 107 81 151 154 186 130 63 181 74 233 47 25-13 31-13 45-1 9 8 43 28 76 44 72 37 203 51 300 33 49-9 61-9 67 3 4 8 41 28 82 45 61 25 88 31 150 31 76 0 109-9 158-42 25-18 29-18 52-3 19 13 50 17 127 17 56 0 110 4 118 9 71 43 180 60 238 38zM1137 3571c-17-29-25-58-26-98-1-26-28-31-64-11-30 16-97 19-97 4 0-6-14-28-30-48-17-21-38-59-46-85-8-26-31-77-52-112-37-64-38-65-107-86l-70-22-27-70c-15-39-30-101-33-139-3-38-12-100-20-139-26-136-60-401-61-485-1-47 4-139 11-205 7-66 11-122 10-125-2-3 3-30 11-60 8-30 17-68 20-85 6-40 55-168 66-176 5-3-19-17-53-30-34-13-68-33-75-44-17-26-36-142-35-220 0-35-12-106-29-170-16-60-34-146-39-190-6-44-20-114-30-155-11-41-23-101-27-133-4-35-12-61-22-66-18-10 53-52 188-109 118-50 187-69 202-54 5 5 12 34 14 63 2 30 8 91 12 135 5 45 8 103 6 130-10 126-10 276-1 344 16 131 23 166 30 150 8-20 43-111 72-186 12-33 30-74 38-91 9-17 14-32 12-35-4-3 9-39 91-262 43-114 165-330 211-373 31-30 41-29 110 7 32 16 87 34 122 39 36 6 68 14 73 19 4 4 4 41-1 81-7 57-7 77 4 87 7 7 15 11 18 8 3-3 8-1 12 5 4 7-3 11-17 11l-23 1 24 19c17 15 19 20 8 20-9 0-19-4-22-10-11-18-23-11-18 10 3 11 10 20 15 20 5 0 6 5 2 12-5 8-11 5-20-7-16-22-15-22-43 33-20 39-20 42-4 42 14 1 13 3-6 14l-24 13 31 14c17 7 28 17 26 21-3 4-14 3-25-2-19-11-25-2-11 16 4 5-1 1-10-9-17-19-18-19-18-1 0 11-13 45-29 77-25 52-26 58-10 54 29-8 23 8-8 21l-28 12 28-5c15-3 27-1 27 5 0 5-12 10-26 10-26 0-26 1-10 24 10 16 12 27 6 31-6 3-15-6-21-22l-10-27-28 49c-15 28-42 72-59 99-17 27-29 52-27 56 3 4 18 10 35 13 16 4 30 11 30 17 0 7-6 8-19 0-31-16-36-12-15 12 18 20 18 21 1 15-15-6-17-3-12 13 4 11 2 20-4 20-6 0-11-11-11-24 0-14-5-28-10-31-6-4-8-11-5-16 4-5 2-9-2-9-13 0-76 167-70 184 4 9 13 16 22 16 8 0 15 5 15 10 0 6-10 8-24 4-24-6-51 16-28 24 7 2 12 21 12 42 0 45 29 74 90 90 21 6 51 17 67 25 15 8 34 15 41 15 8 0 46 10 85 21l70 22 40-44c22-24 54-60 72-79 18-19 46-62 62-95 16-33 51-91 77-129 26-38 55-85 65-105 11-20 35-60 55-90 20-30 53-88 72-130 19-42 39-84 45-93 20-38 8-42-141-53-41-3-77-9-80-13-3-5-13-11-23-15-22-8-35 13-119 183-34 69-76 148-94 175-18 28-40 76-48 107-8 31-19 65-25 76-13 25-40 46-48 39-8-9 62-171 100-232 49-76 64-103 112-203 24-51 67-126 95-167 66-98 118-207 102-213-7-2-36-21-64-43-29-21-58-39-65-39-8 0-43 19-79 41-36 23-67 39-71 36-6-7 108-83 138-92 14-5 36 6 74 34 30 23 58 41 63 41 5 0 15 7 22 15 9 11 6 27-19 77-16 35-41 82-56 105l-25 41 47 16c27 9 89 16 143 17 78 2 103 7 138 26 23 13 47 23 53 23 10 0 86 48 107 68 8 7 29 24 48 38 19 15 56 54 83 88 26 33 70 83 98 110l49 49-43 76c-24 42-52 99-63 128-11 29-31 74-44 100-41 78-76 226-82 348-7 121 18 313 56 430 21 64 50 188 76 320 23 120 39 181 72 275 56 161 53 176-21 116-86-69-214-137-347-182-74-25-149-52-169-61-20-9-41-17-48-18-7 0-18-8-25-17-7-9-25-20-41-24-25-6-27-4-23 17 2 13 7 50 11 81 4 32 11 55 16 53 18-12 18 16 0 34-11 11-27 31-37 46-15 23-15 27-2 43 8 9 26 41 41 70 23 49 24 55 11 82-19 38-53 64-110 86-31 12-43 21-39 31 3 8 5 44 5 79 0 51 3 64 15 64 14 0 14 3-1 25-8 13-13 28-10 33 2 4-41 22-97 40-56 17-136 43-177 57-67 23-198 55-225 55-6 0-18-13-28-29zm175-26c62-19 164-60 226-90l112-54 0-68c0-37-4-73-8-80-9-15-163 25-212 55-19 12-76 35-126 52-50 16-112 39-139 50l-48 20 7 53c8 61 29 97 55 97 11 0 70-16 133-35zm287-86c37-11 70-34 60-43-2-2-33 12-69 31-36 19-58 32-49 29 10-2 35-10 58-17zm-588-13c26-8 55-19 65-24 31-16 72-31 212-78 65-21 167-69 262-123 53-30 228-111 240-111 5 0 10-5 10-11 0-16-61-129-70-129-4 0-20 6-36 14-16 8-58 20-94 25-35 6-105 24-155 40-49 17-173 51-275 77-166 41-194 46-272 42-49-2-88-2-88 0 0 3 17 37 39 76 21 39 42 84 45 100 4 17 21 45 37 63 16 19 29 38 29 43 0 12-4 13 51-4zm617-225c84-26 171-75 158-88-3-3-42 13-88 34-46 22-103 49-128 61-61 28-51 27 58-7zm-552-95c43-14 81-23 86-20 4 3 8 1 8-4 0-13 86-36 101-27 7 5 10 4 6-2-4-6 4-13 18-15 14-3 25-1 25 4 0 5 7 2 16-6 17-17 49-22 39-6-10 15 6 12 19-4 6-8 52-24 101-36 127-29 234-77 242-108 6-24-2-297-11-357-2-16-9-109-15-205-16-230-26-306-61-420-16-52-37-123-47-157-14-50-22-63-38-63-19-1-18-2 3-13 12-7 20-16 17-19-3-3-9-32-13-64l-7-59-29 40c-56 78-61 80-173 45-247-75-273-90-273-159 0-22-3-42-7-44-5-3-19 12-32 33-27 43-84 78-181 110-36 12-76 29-90 38-14 9-54 21-88 26l-64 11-22 55c-31 79-63 243-77 405-15 167-14 216 7 355 33 214 42 280 54 393 9 84 47 227 65 245 9 9 78 31 84 27 4-2 29 3 56 10 82 22 193 19 281-9zm1341-263c-25-76-48-156-51-178-3-22-12-69-20-105-8-36-24-105-35-155-11-49-26-106-35-126-28-66-59-286-59-409 1-179 39-303 179-586l44-91-33-35-34-36-67 31c-64 31-166 111-215 170-30 37-31 65-2 169l24 87-48 46c-43 43-46 49-40 82 7 40 31 97 81 195 39 78 41 95 14 148-11 22-20 46-20 55 0 8-12 21-26 27-22 10-32 8-71-13-55-29-55-30-68-104-6-33-15-60-21-59-5 0-23 25-40 55-41 71-66 97-101 105-50 12-64 32-60 86 2 27 7 51 11 55 3 3 6 16 6 28 0 12 11 31 25 43 13 12 27 32 29 44 3 13 19 80 36 149 16 70 30 138 30 152 0 36 60 69 195 107 17 4 50 15 74 24 41 15 43 15 35-2-4-9-10-62-12-117-3-90-1-105 21-154 21-43 23-58 15-77-6-13-14-24-18-24-4 0-10-30-14-67-15-150-15-153-46-153-15 0-33 7-40 15-17 21-47 19-62-4-11-18-14-18-39-5-36 18-73 18-110-2-36-18-61-12-94 24-15 16-25 21-25 13 0-23 44-61 71-61 15 0 44 7 65 16 37 16 41 15 82-6l43-23 15 21c15 22 44 30 44 13 0-11 66-19 82-10 11 7 13 18 23 124 4 33 16 81 27 107l21 47-23 52c-16 39-22 72-22 128 0 117 10 161 41 175 36 15 189 111 226 140 17 13 31 20 33 15 2-5-17-71-41-146zm-737 117c12-8 12-10-5-10-11 0-27 5-35 10-12 8-12 10 5 10 11 0 27-5 35-10zm35-20c3-5 1-10-4-10-6 0-11 5-11 10 0 6 2 10 4 10 3 0 8-4 11-10zm48-132c-8-84-13-86-13-5 0 37 4 67 9 67 5 0 7-28 4-62zm62-180c-4-35-14-81-22-103-7-22-21-70-29-107-13-57-37-101-47-87-3 3 16 272 22 321 1 3 14 9 31 13 16 4 32 11 35 16 14 21 17 5 10-53zm240-506c14-10 55-113 55-138 0-12-15-50-33-85-51-100-69-149-75-194-4-38-1-45 41-89 39-42 44-52 37-75-5-14-16-48-24-75-31-97-26-116 62-204 58-57 99-88 156-116l76-38-50-58c-27-32-67-73-88-92-47-43-142-108-123-85 21 27 5 20-45-18-26-20-51-34-56-33-12 4-29 35-72 132-20 43-53 103-74 135-21 31-48 76-61 101-13 25-40 68-60 95-21 28-53 79-73 115-19 36-45 82-57 102-20 33-22 44-14 90l8 53 52-3 52-4 12 41c10 34 9 53-6 118-10 43-23 84-30 92-11 11-10 21 2 55 8 22 19 70 24 105 5 36 11 66 12 68 5 4 81-20 95-30 7-6 24-34 37-62 50-105 94-111 108-14 7 52 29 89 52 89 7 0 18 7 25 15 14 17 20 18 35 7zm-390-259c14-39 31-140 28-168-5-37-20-47-58-40-45 8-49 18-32 72 8 26 20 72 27 101 12 54 23 65 35 35zm-998-259c-3-3-12-4-19-1-8 3-5 6 6 6 11 1 17-2 13-5zm122-44c40-17 79-30 85-30 31 0 132-62 152-93 32-49 39-77 20-77-21 0-21-39-1-46 8-4 21-2 28 4 9 7 20-8 43-63 27-63 28-72 12-67-20 5-23-10-8-39 12-21 40-26 40-6 0 11 46-56 95-140 18-32 19-33 1-46-10-7-16-22-14-33 3-14 11-18 34-17 28 2 33-2 57-55 39-85 41-99 17-105-12-3-20-13-20-27 0-19 4-21 29-15 26 6 30 3 41-29 6-19 20-46 30-59 17-22 18-26 5-37-20-17-19-26 5-50 14-14 22-40 27-80 6-66 7-65-63-74-45-6-112-30-161-59l-32-19-26 29c-57 61-175 279-214 391-11 34-25 70-30 80-20 36-30 82-19 82 7 0 7 4 1 13-10 12-73 164-117 277-14 36-37 92-53 125l-27 60-6-100c-3-55-9-105-13-112-12-19-16-236-6-311 7-51 7-107-1-185-14-145-20-190-24-195-13-12-219 66-304 116-37 21-42 28-38 51 3 14 8 49 11 76 4 28 17 93 31 145 13 52 24 110 24 130 0 19 12 76 26 125 14 50 29 137 34 195 11 128 27 219 42 238 27 32 100 56 188 61 14 0 58-13 99-29zm295-196c3-8 2-12-4-9-6 3-10 10-10 16 0 14 7 11 14-7zm-14-24c0-5-7-10-15-10-8 0-15 5-15 10 0 6 7 10 15 10 8 0 15-4 15-10zm80-186c0-8-4-12-10-9-5 3-10 10-10 16 0 5 5 9 10 9 6 0 10-7 10-16zm133-218c6-16-19-30-28-16-7 11 2 30 15 30 4 0 10-6 13-14zm87-210c0-11-19-15-25-6-3 5 1 10 9 10 9 0 16-2 16-4zm90-177c0-5-4-9-10-9-5 0-10 7-10 16 0 8 5 12 10 9 6-3 10-10 10-16zM860 2797c-24-39-44-96-36-104 3-3 66-8 141-11 172-6 178 6 40 73-52 26-95 50-95 55 0 4-7 10-15 14-10 4-22-5-35-27zm48-10c10-11 71-42 152-75 19-8-5-11-102-11l-126 0 20 50c21 49 37 60 56 36zM1215 2732c-27-1-61-5-74-8l-25-5 29-25c15-13 47-29 69-35 23-5 48-12 56-15 8-3 29-8 45-11 17-3 38-9 47-14 27-14 28-12 28 44 0 72-7 79-71 75-30-2-76-4-104-6zm153-59l3-42-68 19c-37 11-77 24-88 29-11 5-29 13-40 17-22 9 76 22 150 20 40-1 40-1 43-43zM915 2655c-5-2-22-6-36-9-20-4-34-20-54-61-16-30-32-55-36-55-14 0-22-111-11-148 7-23 8-38 2-42-11-7 49-66 94-94 43-27 87-16 136 35 22 24 38 49 36 56-7 18 17 11 26-7 4-8 7-27 7-42 1-16 6-27 12-25 6 1 14-4 17-12 3-9 0-11-8-6-27 17 21-53 54-78 27-22 46-27 88-27 80 0 118 30 152 120 37 100 36 171-4 234-69 108-222 116-269 14l-19-43-1 32c-2 58-39 118-88 142-40 19-72 25-98 16zm90-32c22-10 35-24 35-35 0-11 4-17 9-13 26 15 30-65 9-162-9-44-15-53-32-53-12 0-25-9-31-22-11-26-92-68-115-60-58 20-108 135-86 197 17 47 60 129 78 147 23 23 85 24 133 1zm279-66c37-10 57-23 80-50 53-67 47-192-13-261-27-30-88-56-134-56-51 0-74 20-104 90-37 85-37 94 4 180 32 66 44 82 73 94 43 18 35 18 94 3zm-197-109c-3-7-5-2-5 12 0 14 2 19 5 13 2-7 2-19 0-25zm-97-164c0-5-64-34-75-34-13 0 22 28 41 33 29 7 34 7 34 1zm311-110c0-5-20-9-43-10l-43-2 40 13c41 13 47 13 46-1zM888 2609c-21-12-25-71-5-87 25-21 62-24 78-5 27 31 29 51 8 77-21 26-46 36-33 14 6-10 4-10-7 0-16 14-19 14-41 1zm60-52c-2-12-11-23-21-25-15-3-17 3-15 31 2 31 4 34 21 26 11-6 17-19 15-32zM1190 2515c-25-40-20-66 16-85 22-12 29-12 52 3 23 14 27 22 24 54-4 44-7 48-44 57-22 5-30 1-48-29zm58-17c7-7 12-19 12-27 0-13-2-13-9-3-6 10-10 8-14-8-8-30-22-19-25 19-2 33 14 41 36 19zM1017 2157c8-65-2-93-35-105-21-7-31-19-35-41-9-42 1-86 24-107 16-15 23-15 43-4 15 7 38 10 55 7 26-5 31-3 31 13 0 27-29 30-71 6-50-28-69-12-69 55 0 45 3 51 27 60 15 6 31 16 35 22 11 17 10 109-1 126-5 8-7-4-4-32zM823 1777c0-17 13-28 61-50 33-15 75-27 93-27 17 0 64-6 105-14 40-7 84-12 98-11 14 2 50 4 79 4 84 1 49 23-51 32-165 15-287 38-337 63l-48 25 0-22zm130-54c-7-2-19-2-25 0-7 3-2 5 12 5 14 0 19-2 13-5zm134-19c-3-3-12-4-19-1-8 3-5 6 6 6 11 1 17-2 13-5zM1280 670c-8-6-39-17-68-26-48-14-53-18-47-37 3-12 14-52 23-89 16-65 18-68 67-92 59-31 86-32 112-9 20 18 49 98 44 118-2 6-11 39-20 75l-17 65-39 3c-22 1-47-2-55-8zm90-57c6-27 16-58 20-70 5-12 5-25 1-28-5-2-12-20-15-39-4-18-15-41-26-51-18-16-21-16-72 7-49 23-54 28-66 74-8 27-18 62-24 77-6 15-9 29-7 31 11 11 118 44 145 45 29 1 32-2 44-46zM607 3503c-4-3-7-14-7-23 0-9-9-27-20-40-27-31-33-60-21-93 9-22 17-27 44-27 70 0 87 63 37 134-16 24-26 46-23 50 4 3 4 6 1 6-2 0-8-3-11-7zm45-106c10-33 9-39-8-52-31-23-63-19-74 11-11 27-10 30 24 81 19 30 22 31 34 16 7-10 18-35 24-56zM1120 1367c0-8 11-19 25-25 14-6 25-8 25-3 0 5-8 12-17 15-15 6-15 8-3 16 12 8 10 10-7 10-13 0-23-6-23-13zM1589 776c-95-50-91-41-52-106 49-82 73-102 119-98 37 3 39 5 46 46 6 35 2 52-22 104-16 34-27 65-24 70 10 15-23 8-67-16zm76-52c25-56 31-100 17-120-12-18-42-24-63-13-19 10-89 109-89 126 0 8 89 62 103 63 4 0 18-25 32-56z"/></g></svg>